<?xml version="1.0" standalone="no"?><!DOCTYPE svg PUBLIC "-//W3C//DTD SVG 1.1//EN" "http://www.w3.org/Graphics/SVG/1.1/DTD/svg11.dtd"><svg t="1744183205826" class="icon" viewBox="0 0 1024 1024" version="1.1" xmlns="http://www.w3.org/2000/svg" p-id="4102" xmlns:xlink="http://www.w3.org/1999/xlink" width="64" height="64"><path d="M448 160a32 32 0 0 1 32-32h448a32 32 0 0 1 32 32v64a32 32 0 0 1-32 32h-448a32 32 0 0 1-32-32v-64zM128 64a128 128 0 0 0-128 128v128a128 128 0 0 0 128 128h128a128 128 0 0 0 128-128V192a128 128 0 0 0-128-128H128z m0 512a128 128 0 0 0-128 128v128a128 128 0 0 0 128 128h128a128 128 0 0 0 128-128v-128a128 128 0 0 0-128-128H128z m54.656-233.344a32 32 0 0 1-45.312 0l-64-64a32 32 0 1 1 45.312-45.312l41.344 41.408 105.344-105.408a32 32 0 1 1 45.312 45.312l-128 128z m0 512a32 32 0 0 1-45.312 0l-64-64a32 32 0 0 1 45.312-45.312l41.344 41.408 105.344-105.408a32 32 0 0 1 45.312 45.312l-128 128zM448 672a32 32 0 0 1 32-32h448a32 32 0 0 1 32 32v64a32 32 0 0 1-32 32h-448a32 32 0 0 1-32-32v-64zM448 352a32 32 0 0 1 32-32h320a32 32 0 0 1 0 64h-320a32 32 0 0 1-32-32zM448 864a32 32 0 0 1 32-32h320a32 32 0 0 1 0 64h-320a32 32 0 0 1-32-32z" fill="#000000" p-id="4103"></path></svg>