<?xml version="1.0" standalone="no"?><!DOCTYPE svg PUBLIC "-//W3C//DTD SVG 1.1//EN" "http://www.w3.org/Graphics/SVG/1.1/DTD/svg11.dtd"><svg t="1744183515174" class="icon" viewBox="0 0 1024 1024" version="1.1" xmlns="http://www.w3.org/2000/svg" p-id="9224" xmlns:xlink="http://www.w3.org/1999/xlink" width="64" height="64"><path d="M412 124c-5.523 0-10 4.477-10 10v200c0 5.523 4.477 10 10 10h200c5.523 0 10-4.477 10-10V134c0-5.523-4.477-10-10-10H412z m200-60c38.66 0 70 31.34 70 70v200c0 38.66-31.34 70-70 70h-70v99h270c27.614 0 50 22.386 50 50v147h48c27.614 0 50 22.386 50 50v160c0 27.614-22.386 50-50 50H750c-27.614 0-50-22.386-50-50V750c0-27.614 22.386-50 50-50h52V563H542v137h50c27.614 0 50 22.386 50 50v160c0 27.614-22.386 50-50 50H432c-27.614 0-50-22.386-50-50V750c0-27.614 22.386-50 50-50h50V563H222v137h52c27.614 0 50 22.386 50 50v160c0 27.614-22.386 50-50 50H114c-27.614 0-50-22.386-50-50V750c0-27.614 22.386-50 50-50h48V553c0-27.614 22.386-50 50-50h270v-99h-70c-38.66 0-70-31.34-70-70V134c0-38.66 31.34-70 70-70h200zM264 760H124v140h140V760z m318 0H442v140h140V760z m318 0H760v140h140V760z" fill="#000000" p-id="9225"></path></svg>