<?xml version="1.0" standalone="no"?><!DOCTYPE svg PUBLIC "-//W3C//DTD SVG 1.1//EN" "http://www.w3.org/Graphics/SVG/1.1/DTD/svg11.dtd"><svg t="1744183436711" class="icon" viewBox="0 0 1024 1024" version="1.1" xmlns="http://www.w3.org/2000/svg" p-id="5358" xmlns:xlink="http://www.w3.org/1999/xlink" width="64" height="64"><path d="M128 170.666667a42.666667 42.666667 0 0 1 42.666667-42.666667h682.666666a42.666667 42.666667 0 0 1 42.666667 42.666667v682.666666a42.666667 42.666667 0 0 1-42.666667 42.666667H170.666667a42.666667 42.666667 0 0 1-42.666667-42.666667V170.666667z m85.333333 42.666666v597.333334h597.333334V213.333333H213.333333z" fill="#000000" p-id="5359"></path><path d="M554.666667 298.666667v426.666666h-85.333334V298.666667h85.333334z" fill="#000000" p-id="5360"></path><path d="M640 362.666667H384v-85.333334h256v85.333334zM640 746.666667H384v-85.333334h256v85.333334z" fill="#000000" p-id="5361"></path></svg>